<?xml version="1.0" standalone="no"?>
<!DOCTYPE svg PUBLIC "-//W3C//DTD SVG 20010904//EN"
 "http://www.w3.org/TR/2001/REC-SVG-20010904/DTD/svg10.dtd">
<svg version="1.0" xmlns="http://www.w3.org/2000/svg"
 width="260.000000pt" height="260.000000pt" viewBox="0 0 260.000000 260.000000"
 preserveAspectRatio="xMidYMid meet">
<metadata>
Created by potrace 1.11, written by Peter Selinger 2001-2013
</metadata>
<g transform="translate(0.000000,260.000000) scale(0.100000,-0.100000)"
fill="#000000" stroke="none">
<path d="M0 1300 l0 -1300 1300 0 1300 0 0 1300 0 1300 -1300 0 -1300 0 0
-1300z m1930 883 c0 -37 -19 -106 -33 -119 -4 -4 -7 -18 -7 -31 0 -12 -4 -23
-10 -23 -13 0 -13 36 1 62 8 16 8 19 -2 16 -7 -2 -16 -11 -20 -19 -21 -41 -77
-167 -84 -189 -4 -14 -20 -43 -36 -64 -17 -23 -29 -53 -29 -70 0 -17 -9 -47
-19 -66 -10 -19 -28 -53 -38 -75 -31 -63 -71 -104 -113 -115 -39 -11 -70 -33
-70 -51 0 -5 15 -16 33 -25 30 -14 38 -14 90 1 31 9 59 21 62 26 10 15 39 10
91 -16 27 -14 54 -25 60 -25 22 0 120 -48 151 -74 16 -14 42 -53 57 -88 51
-117 70 -153 134 -251 35 -54 65 -104 68 -111 9 -25 -48 -48 -157 -66 -37 -5
-84 -16 -105 -24 -61 -21 -120 -28 -174 -21 -40 5 -67 19 -128 65 -77 57 -153
132 -186 183 -31 46 -55 27 -56 -43 l0 -25 -24 30 -24 30 -18 -40 c-10 -22
-31 -57 -47 -77 -43 -57 -28 -68 26 -19 40 37 49 42 63 30 26 -21 44 -66 44
-108 0 -41 -2 -43 -106 -169 -42 -52 -171 -172 -214 -201 -13 -9 -39 -33 -58
-53 -44 -49 -94 -66 -127 -44 -13 9 -33 16 -44 16 -24 0 -41 28 -41 67 0 15
-10 64 -21 108 -32 124 -37 153 -44 260 l-6 100 49 83 c65 107 123 176 184
217 28 19 45 36 39 39 -6 4 -39 12 -73 17 -88 14 -225 56 -274 84 -22 13 -54
41 -70 62 -16 21 -54 66 -86 101 l-58 64 0 209 c0 239 -11 218 105 194 38 -8
159 -26 268 -41 110 -14 212 -30 226 -35 54 -21 90 -59 126 -136 45 -93 49
-89 65 74 17 173 17 171 84 238 34 34 82 75 109 92 42 28 72 38 212 71 22 5
88 10 148 11 l107 1 0 -37z m-70 -333 c0 -5 -4 -10 -10 -10 -5 0 -10 5 -10 10
0 6 5 10 10 10 6 0 10 -4 10 -10z m-23 -169 c-16 -63 -78 -151 -106 -151 -10
0 -8 7 8 24 13 14 20 29 17 35 -4 6 3 24 15 40 12 17 22 43 21 60 0 21 5 30
19 34 10 3 19 13 19 23 0 13 3 15 11 7 8 -8 7 -27 -4 -72z"/>
<path d="M1270 1601 c0 -25 19 -38 31 -20 12 19 6 33 -14 37 -11 2 -17 -3 -17
-17z"/>
<path d="M1170 1576 c0 -9 5 -16 10 -16 6 0 10 4 10 9 0 6 -4 13 -10 16 -5 3
-10 -1 -10 -9z"/>
<path d="M1335 1521 c-4 -22 -3 -47 2 -56 9 -15 12 -14 33 3 21 17 23 23 14
53 -14 50 -40 50 -49 0z"/>
<path d="M1090 1545 c0 -3 26 -38 59 -78 73 -90 88 -117 66 -117 -9 0 -25 5
-36 10 -26 14 -24 4 6 -32 32 -38 32 -43 -7 -54 -47 -14 -44 -27 11 -47 28
-10 64 -29 80 -43 32 -27 45 -25 98 16 l23 18 -21 26 c-16 20 -19 33 -13 62 4
20 3 35 -2 32 -5 -2 -21 -10 -36 -17 -32 -16 -78 -2 -78 24 0 21 -28 71 -78
137 -37 48 -72 79 -72 63z"/>
<path d="M1190 1514 c0 -8 5 -12 10 -9 6 4 8 11 5 16 -9 14 -15 11 -15 -7z"/>
<path d="M964 1496 c-9 -24 5 -36 36 -29 25 4 34 1 51 -21 11 -14 34 -33 50
-41 25 -14 29 -14 29 -1 0 38 -19 64 -52 68 -18 3 -50 13 -71 22 -33 14 -38
15 -43 2z"/>
<path d="M1083 1293 c-23 -9 -15 -35 10 -31 12 2 22 9 22 17 0 16 -14 22 -32
14z"/>
<path d="M1460 1125 c-11 -13 -7 -24 23 -68 42 -61 127 -147 127 -128 0 7 -11
27 -24 44 -13 18 -26 52 -29 77 -9 67 -66 112 -97 75z"/>
<path d="M1225 1100 c-4 -6 -3 -16 3 -22 6 -6 12 -6 17 2 4 6 3 16 -3 22 -6 6
-12 6 -17 -2z"/>
<path d="M1275 1061 c-6 -20 3 -51 16 -51 14 0 38 41 32 56 -8 20 -41 17 -48
-5z"/>
</g>
</svg>
