<svg width="703" height="514" xmlns="http://www.w3.org/2000/svg"><title>Mask</title><defs><linearGradient x1="6.581%" y1="95.929%" x2="3.117%" y2="50%" id="a"><stop stop-color="#F05D1A" offset="0%"/><stop stop-color="#FF9727" offset="100%"/></linearGradient></defs><path d="M1507.9 487.384c0-101.145-38.256-169.165-98.666-151.272-60.41 17.894-37.91 77.486-95.52 47.034-57.61-30.45-73.783-135.53-162.98-118.22-89.195 17.309-93.235 86.843-81.863 127.46 11.372 40.618 13.377 71.436-40.416 82.47-53.793 11.034-103.011-68.32-170.465-22.95-67.454 45.37-39.205 43.694-114.996 94.398-75.792 50.703-239.31-34.509-297.672 25.952-58.362 60.461-37.528 112.611-.667 164.279 36.86 51.668 76.05 91.316 38.025 131.097-38.025 39.782-111.631 8.033-154.045 58.84-42.413 50.807-29.108 105.53 11.828 156.516 40.936 50.986 95.806 97.8 22.76 143.7-73.047 45.899-101.41 84.539-82.274 146.48 19.135 61.94 77.547 67.789 170.974 80.855 93.428 13.067 102.376 106.734 187.343 116.204 84.968 9.47 71.118-64.862 160.89-73.598 89.77-8.735 139.09 94.119 213.333 40.596 74.242-53.523 38.05-139.991 30.355-225.264-7.695-85.273 54.13-117.732 125.804-131.173 71.674-13.44 150.394 13.901 184.434-66.13 34.04-80.031-53.246-177.23 1.697-177.23 54.943 0 115.235-94.858 54.552-121.61-60.682-26.752 85.389 32.3 133.679-10.69 48.29-42.99-36.11-216.599-36.11-317.744z" transform="scale(-1 1) rotate(45 908.21 -261.692)" fill="url(#a)" fill-rule="evenodd"/></svg>